<svg width="32" height="32" viewBox="0 0 32 32" fill="none" xmlns="http://www.w3.org/2000/svg">
<path d="M15.544 20.4947C17.3961 20.4947 18.965 19.9534 20.2508 18.8707C21.5365 17.788 22.1794 16.4767 22.1794 14.9368C22.1794 13.5988 21.7101 12.4538 20.7715 11.5018C19.8329 10.5497 18.695 10.0737 17.3578 10.0737C16.1838 10.0737 15.1776 10.4275 14.339 11.1351C13.5005 11.8427 13.0812 12.6997 13.0812 13.706C13.0812 14.1406 13.1721 14.5637 13.3538 14.9754C13.5354 15.3871 13.808 15.7731 14.1713 16.1333L16.0161 14.5123C15.8764 14.4222 15.7716 14.3096 15.7017 14.1746C15.6318 14.0395 15.5969 13.8947 15.5969 13.7404C15.5969 13.3801 15.7506 13.0713 16.0581 12.814C16.3655 12.5567 16.7988 12.4281 17.3578 12.4281C18.0007 12.4281 18.5527 12.6661 19.0139 13.1421C19.4751 13.6181 19.7057 14.2292 19.7057 14.9754C19.7057 15.8809 19.3144 16.6476 18.5317 17.2756C17.7491 17.9036 16.7708 18.2175 15.5969 18.2175C14.1659 18.2175 12.9556 17.6965 11.9661 16.6544C10.9765 15.6123 10.4818 14.3247 10.4818 12.7915C10.4818 11.9831 10.6425 11.2187 10.9639 10.4982C11.2854 9.77778 11.7535 9.1345 12.3685 8.56842L10.5656 6.90877C9.72707 7.65497 9.0772 8.53348 8.61601 9.54429C8.15481 10.5551 7.92421 11.6152 7.92421 12.7246C7.92421 14.8942 8.66503 16.7316 10.1467 18.2368C11.6283 19.7421 13.4274 20.4947 15.544 20.4947ZM5.03124 30.8772V24.2386C3.43802 22.9006 2.20117 21.3374 1.3207 19.5491C0.440234 17.7608 0 15.876 0 13.8947C0 10.0351 1.46745 6.75439 4.40234 4.05263C7.33723 1.35088 10.901 0 15.0937 0C18.5877 0 21.6833 0.945614 24.3806 2.83684C27.0779 4.72807 28.8318 7.19181 29.6424 10.2281L31.9484 18.6421C32.0602 19.0023 31.9903 19.3304 31.7388 19.6263C31.4872 19.9222 31.1518 20.0702 30.7325 20.0702H26.8333V25.4737C26.8333 26.1105 26.587 26.6557 26.0943 27.1092C25.6017 27.5627 25.0095 27.7895 24.3177 27.7895H20.125V30.8772H17.6094V25.4737H24.3177V17.7544H29.0974L27.2106 10.807C26.5398 8.31111 25.0724 6.27193 22.8083 4.68947C20.5442 3.10702 17.9727 2.31579 15.0937 2.31579C11.5998 2.31579 8.62998 3.42865 6.18424 5.65439C3.73849 7.88012 2.51562 10.5953 2.51562 13.7998C2.51562 15.4573 2.88352 17.0319 3.61931 18.5237C4.35513 20.0155 5.39878 21.3415 6.75025 22.5018L7.54687 23.1965V30.8772H5.03124Z" fill="#4ABD7F"/>
</svg>
