<svg width="118" height="60" viewBox="0 0 118 60" fill="none" xmlns="http://www.w3.org/2000/svg">
<path d="M42.2 45V16.92C44.12 16.84 45.8 16.7733 47.24 16.72C48.68 16.6667 49.8933 16.64 50.88 16.64C51.8933 16.6133 52.6533 16.6 53.16 16.6C55.6667 16.6 57.7467 16.8 59.4 17.2C61.0533 17.5733 62.3467 18.16 63.28 18.96C64.2133 19.76 64.88 20.8 65.28 22.08C65.68 23.36 65.88 24.9067 65.88 26.72C65.88 28.5867 65.68 30.1867 65.28 31.52C64.9067 32.8533 64.28 33.9467 63.4 34.8C62.5467 35.6533 61.4267 36.2933 60.04 36.72C58.6533 37.12 56.9467 37.32 54.92 37.32C54.3333 37.32 53.84 37.32 53.44 37.32C53.0667 37.32 52.7333 37.32 52.44 37.32C52.1467 37.32 51.8533 37.32 51.56 37.32C51.2667 37.2933 50.92 37.2667 50.52 37.24C50.12 37.2133 49.6133 37.1867 49 37.16V45H42.2ZM49 22.12V31.84C49.4267 31.8667 49.8 31.8933 50.12 31.92C50.44 31.92 50.7333 31.9333 51 31.96C51.2933 31.96 51.5733 31.96 51.84 31.96C52.1333 31.96 52.4533 31.96 52.8 31.96C54.1067 31.96 55.16 31.8667 55.96 31.68C56.7867 31.4933 57.4133 31.1867 57.84 30.76C58.2933 30.3333 58.6 29.7733 58.76 29.08C58.92 28.3867 59 27.5467 59 26.56C59 25.7333 58.92 25.04 58.76 24.48C58.6 23.8933 58.32 23.4133 57.92 23.04C57.5467 22.6667 57.0133 22.4 56.32 22.24C55.6267 22.0533 54.7467 21.96 53.68 21.96C53.3333 21.96 53.0133 21.96 52.72 21.96C52.4267 21.96 52.1067 21.9733 51.76 22C51.44 22 51.0533 22.0133 50.6 22.04C50.1733 22.0667 49.64 22.0933 49 22.12ZM67.2844 44.16L68.0044 39.44C68.4844 39.6 69.031 39.76 69.6444 39.92C70.2844 40.0533 70.9377 40.1733 71.6044 40.28C72.271 40.3867 72.9244 40.4667 73.5644 40.52C74.231 40.5733 74.8444 40.6 75.4044 40.6C76.4444 40.6 77.2044 40.4533 77.6844 40.16C78.191 39.84 78.4444 39.4 78.4444 38.84C78.4444 38.4667 78.311 38.1733 78.0444 37.96C77.8044 37.72 77.4444 37.5067 76.9644 37.32C76.4844 37.1333 75.911 36.9733 75.2444 36.84C74.5777 36.68 73.8444 36.4933 73.0444 36.28C72.1377 36.0933 71.351 35.8267 70.6844 35.48C70.0177 35.1067 69.4444 34.6667 68.9644 34.16C68.511 33.6267 68.1644 33.0267 67.9244 32.36C67.711 31.6667 67.6044 30.8933 67.6044 30.04C67.6044 27.64 68.3644 25.84 69.8844 24.64C71.4044 23.44 73.6577 22.84 76.6444 22.84C77.551 22.84 78.4177 22.8933 79.2444 23C80.071 23.08 80.8577 23.2 81.6044 23.36C82.351 23.52 83.031 23.72 83.6444 23.96L82.8444 28.76C82.2577 28.5467 81.6444 28.3733 81.0044 28.24C80.391 28.1067 79.7244 28 79.0044 27.92C78.311 27.84 77.5244 27.8 76.6444 27.8C75.6844 27.8 74.9644 27.9333 74.4844 28.2C74.0044 28.4667 73.7644 28.88 73.7644 29.44C73.7644 29.7867 73.8577 30.0667 74.0444 30.28C74.231 30.4667 74.511 30.64 74.8844 30.8C75.2577 30.9333 75.711 31.0667 76.2444 31.2C76.8044 31.3067 77.4444 31.44 78.1644 31.6C79.1244 31.7867 80.0044 32.04 80.8044 32.36C81.631 32.68 82.3377 33.0933 82.9244 33.6C83.511 34.08 83.9644 34.6933 84.2844 35.44C84.631 36.1867 84.8044 37.1067 84.8044 38.2C84.8044 39.2667 84.631 40.2 84.2844 41C83.9644 41.8 83.511 42.48 82.9244 43.04C82.3377 43.6 81.6444 44.0533 80.8444 44.4C80.071 44.7467 79.2044 45 78.2444 45.16C77.2844 45.32 76.2977 45.4 75.2844 45.4C74.3244 45.4 73.391 45.3467 72.4844 45.24C71.5777 45.16 70.6977 45.04 69.8444 44.88C68.991 44.6933 68.1377 44.4533 67.2844 44.16ZM90.5888 20.92C89.2554 20.92 88.2688 20.6533 87.6288 20.12C87.0154 19.5867 86.7088 18.76 86.7088 17.64C86.7088 16.52 87.0154 15.6933 87.6288 15.16C88.2688 14.6267 89.2554 14.36 90.5888 14.36C91.9221 14.36 92.8954 14.6267 93.5088 15.16C94.1221 15.6933 94.4288 16.52 94.4288 17.64C94.4288 18.76 94.1221 19.5867 93.5088 20.12C92.9221 20.6533 91.9488 20.92 90.5888 20.92ZM87.3088 45V23.24H93.8288V45H87.3088ZM115.664 45.36C115.184 45.36 114.717 45.3067 114.264 45.2C113.811 45.12 113.317 44.9467 112.784 44.68C112.277 44.4133 111.691 44.0267 111.024 43.52C110.384 42.9867 109.637 42.3067 108.784 41.48L103.744 36.76V45H97.5041V15.4H103.744V28.6L110.104 34.64C111.331 35.8133 112.331 36.7067 113.104 37.32C113.904 37.9333 114.557 38.3467 115.064 38.56C115.571 38.7467 116.064 38.84 116.544 38.84C116.624 38.84 116.717 38.84 116.824 38.84C116.931 38.8133 117.051 38.8 117.184 38.8L117.224 45.24C117.011 45.2667 116.771 45.2933 116.504 45.32C116.264 45.3467 115.984 45.36 115.664 45.36ZM108.344 35.56L103.064 33.04C104.024 32.1867 104.891 31.3467 105.664 30.52C106.464 29.6933 107.157 28.88 107.744 28.08C108.357 27.28 108.864 26.4533 109.264 25.6C109.691 24.7467 110.024 23.84 110.264 22.88L116.904 23.24C116.611 24.3867 116.157 25.52 115.544 26.64C114.931 27.76 114.211 28.8533 113.384 29.92C112.584 30.9867 111.744 32 110.864 32.96C109.984 33.8933 109.144 34.76 108.344 35.56Z" fill="#141414"/>
<path d="M14.5725 34.6084C16.3088 34.6084 17.7797 34.072 18.9851 32.9991C20.1905 31.9263 20.7932 30.6269 20.7932 29.1011C20.7932 27.7753 20.3532 26.6407 19.4733 25.6973C18.5933 24.7539 17.5265 24.2822 16.2729 24.2822C15.1723 24.2822 14.229 24.6328 13.4429 25.334C12.6567 26.0351 12.2637 26.8843 12.2637 27.8815C12.2637 28.3121 12.3488 28.7314 12.5191 29.1393C12.6895 29.5473 12.945 29.9297 13.2856 30.2867L15.0151 28.6804C14.8841 28.5912 14.7858 28.4796 14.7203 28.3458C14.6548 28.2119 14.6221 28.0685 14.6221 27.9155C14.6221 27.5585 14.7662 27.2526 15.0544 26.9976C15.3427 26.7427 15.7488 26.6152 16.2729 26.6152C16.8756 26.6152 17.3932 26.851 17.8255 27.3227C18.2579 27.7944 18.4741 28.3999 18.4741 29.1393C18.4741 30.0366 18.1072 30.7963 17.3735 31.4186C16.6398 32.0408 15.7226 32.3519 14.6221 32.3519C13.2805 32.3519 12.1459 31.8356 11.2182 30.803C10.2905 29.7704 9.82665 28.4945 9.82665 26.9753C9.82665 26.1743 9.97732 25.4168 10.2787 24.7029C10.58 23.989 11.0189 23.3516 11.5954 22.7907L9.90526 21.1461C9.11913 21.8855 8.50988 22.756 8.07751 23.7576C7.64513 24.7592 7.42895 25.8097 7.42895 26.909C7.42895 29.0588 8.12347 30.8795 9.51251 32.3711C10.9015 33.8626 12.5882 34.6084 14.5725 34.6084ZM4.71679 44.8964V38.3182C3.22314 36.9924 2.0636 35.4434 1.23816 33.6714C0.412719 31.8994 0 30.0317 0 28.0685C0 24.244 1.37573 20.9931 4.12719 18.316C6.87865 15.6388 10.2197 14.3002 14.1504 14.3002C17.4259 14.3002 20.3281 15.2372 22.8568 17.1113C25.3855 18.9853 27.0298 21.4266 27.7898 24.4352L29.9516 32.7726C30.0564 33.1296 29.9909 33.4547 29.7551 33.7479C29.5193 34.0411 29.2048 34.1877 28.8117 34.1877H25.1562V39.542C25.1562 40.1731 24.9253 40.7133 24.4634 41.1627C24.0016 41.612 23.4464 41.8367 22.7978 41.8367H18.8672V44.8964H16.5088V39.542H22.7978V31.893H27.2788L25.51 25.0089C24.8811 22.5357 23.5053 20.5151 21.3828 18.947C19.2602 17.379 16.8494 16.5949 14.1504 16.5949C10.8748 16.5949 8.09061 17.6977 5.79772 19.9031C3.50484 22.1086 2.3584 24.799 2.3584 27.9744C2.3584 29.6168 2.7033 31.1771 3.3931 32.6553C4.08293 34.1335 5.06135 35.4475 6.32836 36.5972L7.07519 37.2856V44.8964H4.71679Z" fill="#4ABD7F"/>
</svg>
