<svg width="118" height="32" viewBox="0 0 118 32" fill="none" xmlns="http://www.w3.org/2000/svg">
<path d="M42.2 31V2.92C44.12 2.84 45.8 2.77333 47.24 2.72C48.68 2.66667 49.8933 2.64 50.88 2.64C51.8933 2.61333 52.6533 2.6 53.16 2.6C55.6667 2.6 57.7467 2.8 59.4 3.2C61.0533 3.57333 62.3467 4.16 63.28 4.96C64.2133 5.76 64.88 6.8 65.28 8.08C65.68 9.36 65.88 10.9067 65.88 12.72C65.88 14.5867 65.68 16.1867 65.28 17.52C64.9067 18.8533 64.28 19.9467 63.4 20.8C62.5467 21.6533 61.4267 22.2933 60.04 22.72C58.6533 23.12 56.9467 23.32 54.92 23.32C54.3333 23.32 53.84 23.32 53.44 23.32C53.0667 23.32 52.7333 23.32 52.44 23.32C52.1467 23.32 51.8533 23.32 51.56 23.32C51.2667 23.2933 50.92 23.2667 50.52 23.24C50.12 23.2133 49.6133 23.1867 49 23.16V31H42.2ZM49 8.12V17.84C49.4267 17.8667 49.8 17.8933 50.12 17.92C50.44 17.92 50.7333 17.9333 51 17.96C51.2933 17.96 51.5733 17.96 51.84 17.96C52.1333 17.96 52.4533 17.96 52.8 17.96C54.1067 17.96 55.16 17.8667 55.96 17.68C56.7867 17.4933 57.4133 17.1867 57.84 16.76C58.2933 16.3333 58.6 15.7733 58.76 15.08C58.92 14.3867 59 13.5467 59 12.56C59 11.7333 58.92 11.04 58.76 10.48C58.6 9.89333 58.32 9.41333 57.92 9.04C57.5467 8.66667 57.0133 8.4 56.32 8.24C55.6267 8.05333 54.7467 7.96 53.68 7.96C53.3333 7.96 53.0133 7.96 52.72 7.96C52.4267 7.96 52.1067 7.97333 51.76 8C51.44 8 51.0533 8.01333 50.6 8.04C50.1733 8.06667 49.64 8.09333 49 8.12Z" fill="#141414"/>
<path d="M67.2844 30.16L68.0044 25.44C68.4844 25.6 69.031 25.76 69.6444 25.92C70.2844 26.0533 70.9377 26.1733 71.6044 26.28C72.271 26.3867 72.9244 26.4667 73.5644 26.52C74.231 26.5733 74.8444 26.6 75.4044 26.6C76.4444 26.6 77.2044 26.4533 77.6844 26.16C78.191 25.84 78.4444 25.4 78.4444 24.84C78.4444 24.4667 78.311 24.1733 78.0444 23.96C77.8044 23.72 77.4444 23.5067 76.9644 23.32C76.4844 23.1333 75.911 22.9733 75.2444 22.84C74.5777 22.68 73.8444 22.4933 73.0444 22.28C72.1377 22.0933 71.351 21.8267 70.6844 21.48C70.0177 21.1067 69.4444 20.6667 68.9644 20.16C68.511 19.6267 68.1644 19.0267 67.9244 18.36C67.711 17.6667 67.6044 16.8933 67.6044 16.04C67.6044 13.64 68.3644 11.84 69.8844 10.64C71.4044 9.44 73.6577 8.84 76.6444 8.84C77.551 8.84 78.4177 8.89333 79.2444 9C80.071 9.08 80.8577 9.2 81.6044 9.36C82.351 9.52 83.031 9.72 83.6444 9.96L82.8444 14.76C82.2577 14.5467 81.6444 14.3733 81.0044 14.24C80.391 14.1067 79.7244 14 79.0044 13.92C78.311 13.84 77.5244 13.8 76.6444 13.8C75.6844 13.8 74.9644 13.9333 74.4844 14.2C74.0044 14.4667 73.7644 14.88 73.7644 15.44C73.7644 15.7867 73.8577 16.0667 74.0444 16.28C74.231 16.4667 74.511 16.64 74.8844 16.8C75.2577 16.9333 75.711 17.0667 76.2444 17.2C76.8044 17.3067 77.4444 17.44 78.1644 17.6C79.1244 17.7867 80.0044 18.04 80.8044 18.36C81.631 18.68 82.3377 19.0933 82.9244 19.6C83.511 20.08 83.9644 20.6933 84.2844 21.44C84.631 22.1867 84.8044 23.1067 84.8044 24.2C84.8044 25.2667 84.631 26.2 84.2844 27C83.9644 27.8 83.511 28.48 82.9244 29.04C82.3377 29.6 81.6444 30.0533 80.8444 30.4C80.071 30.7467 79.2044 31 78.2444 31.16C77.2844 31.32 76.2977 31.4 75.2844 31.4C74.3244 31.4 73.391 31.3467 72.4844 31.24C71.5777 31.16 70.6977 31.04 69.8444 30.88C68.991 30.6933 68.1377 30.4533 67.2844 30.16Z" fill="#141414"/>
<path d="M90.5888 6.92C89.2554 6.92 88.2688 6.65333 87.6288 6.12C87.0154 5.58667 86.7087 4.76 86.7087 3.64C86.7087 2.52 87.0154 1.69333 87.6288 1.16C88.2688 0.626665 89.2554 0.359999 90.5888 0.359999C91.9221 0.359999 92.8954 0.626665 93.5088 1.16C94.1221 1.69333 94.4287 2.52 94.4287 3.64C94.4287 4.76 94.1221 5.58667 93.5088 6.12C92.9221 6.65333 91.9488 6.92 90.5888 6.92ZM87.3087 31V9.24H93.8288V31H87.3087Z" fill="#141414"/>
<path d="M115.664 31.36C115.184 31.36 114.717 31.3067 114.264 31.2C113.811 31.12 113.317 30.9467 112.784 30.68C112.277 30.4133 111.691 30.0267 111.024 29.52C110.384 28.9867 109.637 28.3067 108.784 27.48L103.744 22.76V31H97.5041V1.4H103.744V14.6L110.104 20.64C111.331 21.8133 112.331 22.7067 113.104 23.32C113.904 23.9333 114.557 24.3467 115.064 24.56C115.571 24.7467 116.064 24.84 116.544 24.84C116.624 24.84 116.717 24.84 116.824 24.84C116.931 24.8133 117.051 24.8 117.184 24.8L117.224 31.24C117.011 31.2667 116.771 31.2933 116.504 31.32C116.264 31.3467 115.984 31.36 115.664 31.36ZM108.344 21.56L103.064 19.04C104.024 18.1867 104.891 17.3467 105.664 16.52C106.464 15.6933 107.157 14.88 107.744 14.08C108.357 13.28 108.864 12.4533 109.264 11.6C109.691 10.7467 110.024 9.84 110.264 8.88L116.904 9.24C116.611 10.3867 116.157 11.52 115.544 12.64C114.931 13.76 114.211 14.8533 113.384 15.92C112.584 16.9867 111.744 18 110.864 18.96C109.984 19.8933 109.144 20.76 108.344 21.56Z" fill="#141414"/>
<path d="M14.5725 20.6084C16.3088 20.6084 17.7797 20.072 18.9851 18.9991C20.1905 17.9263 20.7932 16.6269 20.7932 15.1011C20.7932 13.7753 20.3532 12.6407 19.4733 11.6973C18.5933 10.7539 17.5265 10.2822 16.2729 10.2822C15.1723 10.2822 14.229 10.6328 13.4429 11.334C12.6567 12.0351 12.2637 12.8843 12.2637 13.8815C12.2637 14.3121 12.3488 14.7314 12.5191 15.1393C12.6895 15.5473 12.945 15.9297 13.2856 16.2867L15.0151 14.6804C14.8841 14.5912 14.7858 14.4796 14.7203 14.3458C14.6548 14.2119 14.6221 14.0685 14.6221 13.9155C14.6221 13.5585 14.7662 13.2526 15.0544 12.9976C15.3427 12.7427 15.7488 12.6152 16.2729 12.6152C16.8756 12.6152 17.3932 12.851 17.8255 13.3227C18.2579 13.7944 18.4741 14.3999 18.4741 15.1393C18.4741 16.0366 18.1072 16.7963 17.3735 17.4186C16.6398 18.0408 15.7226 18.3519 14.6221 18.3519C13.2805 18.3519 12.1459 17.8356 11.2182 16.803C10.2905 15.7704 9.82665 14.4945 9.82665 12.9753C9.82665 12.1743 9.97732 11.4168 10.2787 10.7029C10.58 9.989 11.0189 9.35158 11.5954 8.79066L9.90526 7.14611C9.11913 7.88552 8.50988 8.75603 8.07751 9.75765C7.64513 10.7592 7.42895 11.8097 7.42895 12.909C7.42895 15.0588 8.12347 16.8795 9.51251 18.3711C10.9015 19.8626 12.5882 20.6084 14.5725 20.6084ZM4.71679 30.8964V24.3182C3.22314 22.9924 2.0636 21.4434 1.23816 19.6714C0.412719 17.8994 0 16.0317 0 14.0685C0 10.244 1.37573 6.99313 4.12719 4.31597C6.87865 1.63881 10.2197 0.300232 14.1504 0.300232C17.4259 0.300232 20.3281 1.23724 22.8568 3.11125C25.3855 4.98526 27.0298 7.42658 27.7898 10.4352L29.9516 18.7726C30.0564 19.1296 29.9909 19.4547 29.7551 19.7479C29.5193 20.0411 29.2048 20.1877 28.8117 20.1877H25.1562V25.542C25.1562 26.1731 24.9253 26.7133 24.4634 27.1627C24.0016 27.612 23.4464 27.8367 22.7978 27.8367H18.8672V30.8964H16.5088V25.542H22.7978V17.893H27.2788L25.51 11.0089C24.8811 8.53569 23.5053 6.51507 21.3828 4.94702C19.2602 3.37897 16.8494 2.59494 14.1504 2.59494C10.8748 2.59494 8.09061 3.69768 5.79772 5.90315C3.50484 8.10862 2.3584 10.799 2.3584 13.9744C2.3584 15.6168 2.7033 17.1771 3.3931 18.6553C4.08293 20.1335 5.06135 21.4475 6.32836 22.5972L7.07519 23.2856V30.8964H4.71679Z" fill="#4ABD7F"/>
</svg>
